# xmcd
#
# Track frame offsets: 
#        150
#        17087
#        36775
#        55775
#        72575
#        92987
#        109762
#        127225
#        146280
#        164920
#
# Disc length: 2437 seconds
#
# Revision: 5
# Processed by: cddbd v1.5.2PL0 Copyright (c) Steve Scherf et al.
# Submitted via: ExactAudioCopy v1.0b3
#
DISCID=9409830a
DTITLE=Gina T. - The Window Of My Heart
DYEAR=1992
DGENRE=Pop
TTITLE0=Birds Of Paradise
TTITLE1=Together Again
TTITLE2=The Other Side Of The Sun
TTITLE3=Still In Love
TTITLE4=Sail Over Seven Seas
TTITLE5=One Of Us
TTITLE6=The Window Of My Heart
TTITLE7=Sayonara
TTITLE8=Dirty, Dirty Old Man
TTITLE9=Good-bye My Love, Good-bye
EXTD=
EXTT0=
EXTT1=
EXTT2=
EXTT3=
EXTT4=
EXTT5=
EXTT6=
EXTT7=
EXTT8=
EXTT9=
PLAYORDER=
